<svg xmlns="http://www.w3.org/2000/svg" viewBox="0 0 104 104"><defs><style>.cls-1{fill:#fff;}</style></defs><title>Asset 2</title><g id="Layer_2" data-name="Layer 2"><g id="Layer_1-2" data-name="Layer 1"><path class="cls-1" d="M55.4.11A52,52,0,1,0,103.89,48.6,52.05,52.05,0,0,0,55.4.11ZM75.54,77.8A92,92,0,0,0,79,54h21A47.78,47.78,0,0,1,88.39,83.25,40.74,40.74,0,0,0,75.54,77.8ZM15.61,83.25A47.77,47.77,0,0,1,4.05,54H25a92,92,0,0,0,3.43,23.8A40.72,40.72,0,0,0,15.61,83.25Zm12.83-57A92,92,0,0,0,25,50h-21A47.77,47.77,0,0,1,15.51,20.86,42.37,42.37,0,0,0,28.44,26.23ZM50,50H29a87.31,87.31,0,0,1,3.41-22.85A99,99,0,0,0,50,29Zm0,4V75a97.27,97.27,0,0,0-17.55,1.85A87.29,87.29,0,0,1,29,54Zm4,0H75a87.29,87.29,0,0,1-3.42,22.87A97.32,97.32,0,0,0,54,75Zm0-4V29a98.93,98.93,0,0,0,17.56-1.82A87.32,87.32,0,0,1,75,50Zm0-25V4.2c6.57,1.25,12.45,8.54,16.3,19.13A95.51,95.51,0,0,1,54,25ZM50,4.2V25a95.51,95.51,0,0,1-16.3-1.65C37.55,12.74,43.43,5.45,50,4.2ZM50,79V99.8c-6.56-1.25-12.44-8.53-16.29-19.11A93.78,93.78,0,0,1,50,79ZM54,99.8V79a93.81,93.81,0,0,1,16.29,1.67C66.44,91.27,60.56,98.55,54,99.8ZM79,50a92,92,0,0,0-3.42-23.77,42.38,42.38,0,0,0,12.93-5.37A47.77,47.77,0,0,1,99.95,50Zm6.75-32.12a40.7,40.7,0,0,1-11.39,4.54c-2.51-7.1-5.92-12.87-9.93-16.78A48,48,0,0,1,85.72,17.88ZM29.67,22.42a40.7,40.7,0,0,1-11.39-4.54A48,48,0,0,1,39.6,5.63C35.58,9.55,32.18,15.32,29.67,22.42ZM18.38,86.22a38.89,38.89,0,0,1,11.3-4.6c2.51,7.08,5.91,12.84,9.92,16.75A48,48,0,0,1,18.38,86.22Zm55.94-4.6a38.9,38.9,0,0,1,11.3,4.6A48,48,0,0,1,64.4,98.37C68.41,94.46,71.81,88.7,74.32,81.62Z"/></g></g></svg>